# xmcd CD database file
#
# Track frame offsets:
#	150
#	25631
#	44795
#	72982
#	93659
#	107331
#	124768
#	156028
#	182200
#	200680
#	225678
#	250849
#
# Disc length: 3609 seconds
#
# Revision: 4
# Processed by: cddbd v1.5.2PL0 Copyright (c) Steve Scherf et al.
# Submitted via: CDex 1.70beta2
#
DISCID=a30e170c
DTITLE=ATB - Future Memories
DYEAR=2009
DGENRE=Ambient
TTITLE0=Talismanic
TTITLE1=Missing
TTITLE2=Horizon
TTITLE3=Voices
TTITLE4=Flanders - Behind (ATB's Ambient Version)
TTITLE5=Apple and Stone - Authentic Reaction (ATB Edit)
TTITLE6=Careless
TTITLE7=Twilight
TTITLE8=Listen To Me
TTITLE9=Living Live Over
TTITLE10=Silent Meaning
TTITLE11=Malibu Road
EXTD=YEAR: 2009
EXTT0=
EXTT1=
EXTT2=
EXTT3=
EXTT4=
EXTT5=
EXTT6=
EXTT7=
EXTT8=
EXTT9=
EXTT10=
EXTT11=
PLAYORDER=
